# Blender 4.0.2
# www.blender.org
mtllib untitled.mtl
o obj_0
v -1.102050 0.607750 0.160000
v -1.102050 0.607750 -0.165375
v -1.102050 -0.608900 -0.165375
v -1.102050 -0.608900 0.160000
v 1.089575 0.197050 0.160000
v 1.090725 0.245725 0.160000
v 0.732425 0.607750 0.160000
v 0.882025 0.607750 0.160000
v 0.838325 0.403450 0.160000
v 0.895775 0.402225 0.160000
v 0.876750 0.403450 0.160000
v -0.159250 0.063775 0.160000
v -0.159250 0.063775 -0.165375
v 1.067200 0.446275 0.160000
v 1.036950 0.518950 0.160000
v 0.995500 0.569425 0.160000
v 0.943550 0.598475 0.160000
v 0.463700 -0.390225 -0.165375
v 0.463700 -0.390225 0.160000
v 0.979750 0.208100 0.160000
v -0.358850 0.112425 -0.165375
v 0.980425 0.237600 0.160000
v 0.289600 -0.580350 -0.165375
v 0.289600 -0.580350 0.160000
v -0.353050 0.152850 -0.165375
v 0.323300 -0.605350 -0.165375
v 0.323300 -0.605350 0.160000
v 0.979700 0.268750 0.160000
v 0.360250 -0.620125 -0.165375
v 0.977600 0.295275 0.160000
v 0.360250 -0.620125 0.160000
v 0.400375 -0.625000 -0.165375
v 0.400375 -0.625000 0.160000
v 0.974275 0.317325 0.160000
v -0.488275 0.095775 -0.165375
v 0.439050 -0.620125 -0.165375
v 0.439050 -0.620125 0.160000
v 0.969900 0.335650 0.160000
v 0.475075 -0.605300 -0.165375
v -0.480325 0.107850 -0.165375
v 0.475075 -0.605300 0.160000
v 0.210325 0.449725 -0.165375
v 0.210325 0.449725 0.160000
v 0.508475 -0.580275 -0.165375
v 0.508475 -0.580275 0.160000
v -0.473925 0.122200 -0.165375
v 0.538350 -0.545075 -0.165375
v 0.538350 -0.545075 0.160000
v 0.069625 0.446275 -0.165375
v 0.069625 0.446275 0.160000
v -0.468725 0.138875 -0.165375
v 0.564750 -0.501550 -0.165375
v 0.564750 -0.501550 0.160000
v 0.039350 0.518950 -0.165375
v 0.039350 0.518950 0.160000
v -0.464650 0.158675 -0.165375
v -0.002075 0.569425 -0.165375
v 0.587650 -0.449825 -0.165375
v -0.002075 0.569425 0.160000
v 0.587650 -0.449825 0.160000
v -0.054025 0.598475 -0.165375
v -0.054025 0.598475 0.160000
v -0.461425 0.181900 -0.165375
v 0.022750 -0.608900 -0.165375
v 0.022750 -0.608900 0.160000
v 0.137425 -0.596525 -0.165375
v 0.137425 -0.596525 0.160000
v -0.101800 0.402225 0.160000
v -0.101800 0.402225 -0.165375
v 0.260225 -0.065175 0.160000
v -0.120825 0.403450 0.160000
v -0.120825 0.403450 -0.165375
v 0.263300 -0.125750 0.160000
v -0.386000 0.013125 -0.165375
v 0.268375 -0.181250 0.160000
v 0.191025 0.391000 -0.165375
v 0.191025 0.391000 0.160000
v -0.375425 0.043250 -0.165375
v 0.175450 0.324900 -0.165375
v 0.175450 0.324900 0.160000
v 0.151050 -0.087175 0.160000
v -0.366450 0.076150 -0.165375
v 0.155725 -0.170800 0.160000
v 0.163650 0.251850 -0.165375
v 0.163650 0.251850 0.160000
v -0.105575 -0.139375 0.160000
v -0.541500 0.065225 -0.165375
v 0.092000 0.197050 -0.165375
v 0.092000 0.197050 0.160000
v -0.006050 -0.077850 0.160000
v -0.005452 -0.080010 0.160000
v 0.003350 -0.070925 0.160000
v 0.017200 -0.054425 0.160000
v 0.093150 0.245725 -0.165375
v 0.030775 -0.035100 0.160000
v 0.093150 0.245725 0.160000
v 0.043550 -0.012725 0.160000
v -0.524900 0.069375 -0.165375
v 0.958900 0.107850 -0.165375
v 0.965300 0.122200 -0.165375
v 0.087475 0.353825 -0.165375
v 0.087475 0.353825 0.160000
v 0.970475 0.138875 -0.165375
v -0.510700 0.076075 -0.165375
v 0.974550 0.158675 -0.165375
v -0.017825 0.208100 -0.165375
v -0.498400 0.085025 -0.165375
v -0.017825 0.208100 0.160000
v 0.977775 0.181900 -0.165375
v -0.017150 0.237600 -0.165375
v -0.017150 0.237600 0.160000
v -0.017875 0.268750 -0.165375
v -0.017875 0.268750 0.160000
v 1.086150 0.152850 -0.165375
v 1.080350 0.112425 -0.165375
v -0.019975 0.295275 -0.165375
v -0.019975 0.295275 0.160000
v -0.023300 0.317325 -0.165375
v -0.023300 0.317325 0.160000
v 0.897700 0.065225 -0.165375
v -0.027675 0.335650 -0.165375
v -0.027675 0.335650 0.160000
v 0.914300 0.069375 -0.165375
v -0.033075 0.350975 -0.165375
v 0.928500 0.076075 -0.165375
v -0.033075 0.350975 0.160000
v -0.039550 0.363825 -0.165375
v 0.940800 0.085025 -0.165375
v -0.039550 0.363825 0.160000
v -0.047925 0.375475 -0.165375
v -0.047925 0.375475 0.160000
v -0.058150 0.385275 0.160000
v -0.058150 0.385275 -0.165375
v 1.072750 0.076150 -0.165375
v 1.063800 0.043250 -0.165375
v 1.053225 0.013125 -0.165375
v -0.070500 0.393050 0.160000
v -0.070500 0.393050 -0.165375
v 0.838325 0.063775 -0.165375
v -0.085075 0.398725 0.160000
v -0.085075 0.398725 -0.165375
v 0.878325 0.063775 -0.165375
v 0.644200 0.172725 -0.165375
v 0.644200 0.172725 0.160000
v 0.649475 0.088700 0.160000
v 0.649475 0.088700 -0.165375
v 0.892000 -0.139375 -0.165375
v 0.838325 -0.139375 -0.165375
v 0.651225 -0.000575 -0.165375
v 0.651225 -0.000575 0.160000
v 1.041125 -0.012725 -0.165375
v 1.028350 -0.035100 -0.165375
v 1.014775 -0.054425 -0.165375
v 1.000925 -0.070925 -0.165375
v 0.992123 -0.080010 -0.165375
v 0.991525 -0.077850 -0.165375
v 0.540975 0.000575 -0.165375
v 0.986975 -0.085325 -0.165375
v 0.540975 0.000575 0.160000
v 0.540000 0.066475 -0.165375
v 0.540000 0.066475 0.160000
v 0.537100 0.127225 -0.165375
v 0.537100 0.127225 0.160000
v 0.838325 -0.608900 -0.165375
v 0.732425 -0.608900 -0.165375
v 0.532300 0.182600 -0.165375
v 1.135000 -0.596525 -0.165375
v 1.020325 -0.608900 -0.165375
v 0.532300 0.182600 0.160000
v 0.323800 0.604775 -0.165375
v 0.360975 0.620000 -0.165375
v 0.401475 0.625000 -0.165375
v 0.440075 0.619975 -0.165375
v 0.475900 0.604675 -0.165375
v 0.446175 0.403775 -0.165375
v 0.644200 -0.172325 -0.165375
v 0.644200 -0.172325 0.160000
v 0.425300 0.412850 -0.165375
v 0.649475 -0.088725 -0.165375
v 0.649475 -0.088725 0.160000
v 0.401425 0.415975 -0.165375
v 0.377175 0.412850 -0.165375
v 0.587650 0.449850 -0.165375
v -0.358850 0.112425 0.160000
v 0.532300 -0.181500 -0.165375
v 0.532300 -0.181500 0.160000
v 0.355875 0.403750 -0.165375
v 0.538250 0.544700 -0.165375
v 0.564700 0.501500 -0.165375
v -0.353050 0.152850 0.160000
v 0.537100 -0.126075 -0.165375
v 0.537100 -0.126075 0.160000
v 0.540000 -0.065325 -0.165375
v 0.540000 -0.065325 0.160000
v 0.290200 0.579200 -0.165375
v 0.508525 0.579050 -0.165375
v -0.488275 0.095775 0.160000
v 0.155725 0.173250 -0.165375
v 0.155725 0.173250 0.160000
v 0.525625 0.231900 -0.165375
v 0.151050 0.090000 -0.165375
v -0.480325 0.107850 0.160000
v 0.151050 0.090000 0.160000
v 0.517075 0.274800 -0.165375
v 0.149500 0.001725 -0.165375
v 0.149500 0.001725 0.160000
v -0.473925 0.122200 0.160000
v 0.506700 0.311550 -0.165375
v 0.494525 0.342575 -0.165375
v -0.468725 0.138875 0.160000
v 0.260225 0.066325 0.160000
v 0.259200 0.000575 0.160000
v 0.259200 0.000575 -0.165375
v 0.260225 0.066325 -0.165375
v 0.480375 0.368375 -0.165375
v -0.464650 0.158675 0.160000
v 0.268375 0.182350 0.160000
v -0.461425 0.181900 0.160000
v 0.268375 0.182350 -0.165375
v 0.607300 0.390550 -0.165375
v 0.623225 0.324175 -0.165375
v 0.635350 0.251350 -0.165375
v 0.263300 0.126875 0.160000
v 0.263300 0.126875 -0.165375
v 0.464250 0.389075 -0.165375
v -0.386000 0.013125 0.160000
v 0.066225 0.043250 -0.165375
v 0.066225 0.043250 0.160000
v -0.375425 0.043250 0.160000
v 0.075175 0.076150 -0.165375
v 0.075175 0.076150 0.160000
v 0.337500 0.389000 -0.165375
v -0.366450 0.076150 0.160000
v 0.082775 0.112425 -0.165375
v 0.082775 0.112425 0.160000
v 0.321300 0.368300 -0.165375
v 0.088575 0.152850 -0.165375
v 0.088575 0.152850 0.160000
v 0.306925 0.342350 -0.165375
v 0.294425 0.311200 -0.165375
v -0.541500 0.065225 0.160000
v 0.055650 0.013125 -0.165375
v 0.055650 0.013125 0.160000
v 0.283825 0.274475 -0.165375
v 0.275125 0.231725 -0.165375
v -0.524900 0.069375 0.160000
v -0.119250 0.063775 -0.165375
v -0.510700 0.076075 0.160000
v -0.119250 0.063775 0.160000
v -0.115550 0.607750 -0.165375
v -0.099875 0.065225 -0.165375
v -0.498400 0.085025 0.160000
v -0.099875 0.065225 0.160000
v 0.233125 0.501500 -0.165375
v 0.259875 0.544850 -0.165375
v -0.083275 0.069375 -0.165375
v -0.083275 0.069375 0.160000
v -0.547225 -0.139375 0.160000
v -0.069075 0.076075 -0.165375
v -0.547225 -0.139375 -0.165375
v -0.069075 0.076075 0.160000
v -0.056775 0.085025 -0.165375
v -0.056775 0.085025 0.160000
v -0.046650 0.095775 -0.165375
v -0.046650 0.095775 0.160000
v -0.038700 0.107850 -0.165375
v -0.038700 0.107850 0.160000
v -0.159250 -0.139375 0.160000
v -0.159250 -0.139375 -0.165375
v -0.032275 0.122200 -0.165375
v -0.032275 0.122200 0.160000
v -0.027100 0.138875 -0.165375
v -0.438275 -0.070925 -0.165375
v -0.438275 -0.070925 0.160000
v -0.447078 -0.080010 0.160000
v -0.027100 0.138875 0.160000
v -0.447078 -0.080010 -0.165375
v -0.424425 -0.054425 -0.165375
v -0.023025 0.158675 -0.165375
v -0.424425 -0.054425 0.160000
v -0.023025 0.158675 0.160000
v -0.410850 -0.035100 -0.165375
v -0.410850 -0.035100 0.160000
v -0.019800 0.181900 -0.165375
v -0.019800 0.181900 0.160000
v -0.398075 -0.012725 -0.165375
v -0.398075 -0.012725 0.160000
v 0.151050 -0.087175 -0.165375
v 0.155725 -0.170800 -0.165375
v -0.447675 -0.077850 -0.165375
v -0.447675 -0.077850 0.160000
v -0.452225 -0.085325 0.160000
v -0.452225 -0.085325 -0.165375
v 0.260225 -0.065175 -0.165375
v 0.263300 -0.125750 -0.165375
v -0.600875 -0.139375 0.160000
v -0.600875 -0.139375 -0.165375
v 0.268375 -0.181250 -0.165375
v -0.800400 -0.079825 -0.165375
v -0.800400 -0.079825 0.160000
v -0.105575 -0.139375 -0.165375
v 0.003350 -0.070925 -0.165375
v -0.600875 0.063775 0.160000
v -0.600875 0.063775 -0.165375
v -0.005452 -0.080010 -0.165375
v -0.560875 0.063775 -0.165375
v 0.017200 -0.054425 -0.165375
v -0.560875 0.063775 0.160000
v 0.030775 -0.035100 -0.165375
v 0.043550 -0.012725 -0.165375
v -0.800400 0.129050 -0.165375
v -0.800400 0.129050 0.160000
v -0.006050 -0.077850 -0.165375
v -0.010600 -0.085325 0.160000
v -0.010600 -0.085325 -0.165375
v 0.607300 -0.390550 -0.165375
v 0.607300 -0.390550 0.160000
v 0.623225 -0.324175 -0.165375
v 0.623225 -0.324175 0.160000
v 0.635350 -0.251325 -0.165375
v 0.635350 -0.251325 0.160000
v -0.786375 -0.401150 0.160000
v -0.786375 -0.401150 -0.165375
v -0.600875 -0.608900 -0.165375
v -0.600875 -0.608900 0.160000
v -0.706800 -0.608900 0.160000
v -0.706800 -0.608900 -0.165375
v 0.479875 -0.369400 -0.165375
v -0.159250 -0.608900 -0.165375
v -0.159250 -0.608900 0.160000
v -0.265150 -0.608900 0.160000
v 0.479875 -0.369400 0.160000
v -0.265150 -0.608900 -0.165375
v -0.786375 -0.608900 -0.165375
v -0.786375 -0.608900 0.160000
v 0.494225 -0.343200 -0.165375
v 0.494225 -0.343200 0.160000
v 0.506700 -0.311550 -0.165375
v 0.506700 -0.311550 0.160000
v 0.517050 -0.274750 -0.165375
v 0.517050 -0.274750 0.160000
v -0.418875 -0.608900 -0.165375
v -0.418875 -0.608900 0.160000
v 0.525600 -0.231500 -0.165375
v 0.525600 -0.231500 0.160000
v -0.304200 -0.596525 -0.165375
v -0.304200 -0.596525 0.160000
v 0.275150 -0.231350 0.160000
v 0.275150 -0.231350 -0.165375
v 0.283825 -0.274425 0.160000
v 0.283825 -0.274425 -0.165375
v 0.294550 -0.311550 0.160000
v 0.294550 -0.311550 -0.165375
v 0.306825 -0.343425 0.160000
v 0.306825 -0.343425 -0.165375
v -0.996150 -0.079825 0.160000
v -0.996150 -0.079825 -0.165375
v -0.996150 0.129050 -0.165375
v -0.996150 0.129050 0.160000
v 0.320950 -0.369475 0.160000
v 0.320950 -0.369475 -0.165375
v -0.996150 -0.401150 0.160000
v -0.996150 -0.401150 -0.165375
v 0.337000 -0.390200 0.160000
v 0.337000 -0.390200 -0.165375
v 0.355300 -0.404900 -0.165375
v 0.355300 -0.404900 0.160000
v 0.376425 -0.414000 -0.165375
v 0.376425 -0.414000 0.160000
v 0.400350 -0.417125 -0.165375
v 0.400350 -0.417125 0.160000
v 0.424550 -0.414000 -0.165375
v 0.424550 -0.414000 0.160000
v 0.445600 -0.404925 -0.165375
v 0.445600 -0.404925 0.160000
v 1.080350 0.112425 0.160000
v 1.086150 0.152850 0.160000
v 0.950925 0.095775 0.160000
v 0.958900 0.107850 0.160000
v 0.965300 0.122200 0.160000
v 0.970475 0.138875 0.160000
v 0.163625 -0.249450 -0.165375
v 0.163625 -0.249450 0.160000
v 0.175350 -0.323075 -0.165375
v 0.175350 -0.323075 0.160000
v 0.190650 -0.389800 -0.165375
v 0.190650 -0.389800 0.160000
v 0.209700 -0.449575 -0.165375
v 0.209700 -0.449575 0.160000
v 0.232825 -0.501625 -0.165375
v 0.232825 -0.501625 0.160000
v 0.259450 -0.545175 -0.165375
v 0.259450 -0.545175 0.160000
v -0.265150 0.607750 -0.165375
v -0.265150 0.607750 0.160000
v -0.159250 0.403450 0.160000
v -0.159250 0.403450 -0.165375
v -0.372025 0.446275 -0.165375
v -0.372025 0.446275 0.160000
v -0.402275 0.518950 -0.165375
v -0.402275 0.518950 0.160000
v -0.443700 0.569425 -0.165375
v -0.443700 0.569425 0.160000
v -0.543450 0.402225 0.160000
v -0.495675 0.598475 -0.165375
v -0.495675 0.598475 0.160000
v -0.543450 0.402225 -0.165375
v -0.464925 0.317325 0.160000
v -0.469325 0.335650 0.160000
v -0.474700 0.350975 0.160000
v -0.481175 0.363825 0.160000
v -0.489550 0.375475 0.160000
v -0.354150 0.353825 -0.165375
v -0.499775 0.385275 0.160000
v -0.512125 0.393050 0.160000
v -0.526725 0.398725 0.160000
v -0.464925 0.317325 -0.165375
v -0.354150 0.353825 0.160000
v -0.469325 0.335650 -0.165375
v -0.459450 0.208100 0.160000
v -0.474700 0.350975 -0.165375
v -0.458775 0.237600 0.160000
v -0.459500 0.268750 0.160000
v -0.481175 0.363825 -0.165375
v -0.461600 0.295275 0.160000
v -0.489550 0.375475 -0.165375
v -0.349625 0.197050 0.160000
v -0.499775 0.385275 -0.165375
v 0.964525 0.350975 0.160000
v -0.512125 0.393050 -0.165375
v -0.348475 0.245725 0.160000
v -0.526725 0.398725 -0.165375
v 0.958025 0.363825 0.160000
v 0.949650 0.375475 0.160000
v -0.600875 0.403450 0.160000
v -0.349625 0.197050 -0.165375
v -0.562450 0.403450 0.160000
v 0.939425 0.385275 0.160000
v -0.348475 0.245725 -0.165375
v -0.557175 0.607750 0.160000
v -0.706800 0.607750 0.160000
v 0.927075 0.393050 0.160000
v -0.786375 0.607750 0.160000
v -0.786375 0.398875 0.160000
v 0.912500 0.398725 0.160000
v 1.085050 0.353825 0.160000
v -0.459450 0.208100 -0.165375
v -0.996150 0.398875 0.160000
v -0.458775 0.237600 -0.165375
v -0.459500 0.268750 -0.165375
v -0.461600 0.295275 -0.165375
v 0.974550 0.158675 0.160000
v 0.977775 0.181900 0.160000
v 0.897700 0.065225 0.160000
v 0.914300 0.069375 0.160000
v 0.928500 0.076075 0.160000
v 0.940800 0.085025 0.160000
v 1.053225 0.013125 0.160000
v 1.063800 0.043250 0.160000
v 1.072750 0.076150 0.160000
v 0.838325 0.063775 0.160000
v 0.878325 0.063775 0.160000
v 0.838325 -0.139375 0.160000
v 0.892000 -0.139375 0.160000
v 0.992123 -0.080010 0.160000
v 1.000925 -0.070925 0.160000
v 1.014775 -0.054425 0.160000
v 1.028350 -0.035100 0.160000
v 1.041125 -0.012725 0.160000
v 0.991525 -0.077850 0.160000
v 0.986975 -0.085325 0.160000
v 0.732425 -0.608900 0.160000
v 0.838325 -0.608900 0.160000
v -0.600875 0.403450 -0.165375
v 1.135000 -0.596525 0.160000
v -0.562450 0.403450 -0.165375
v 1.020325 -0.608900 0.160000
v -0.706800 0.607750 -0.165375
v 0.401475 0.625000 0.160000
v -0.557175 0.607750 -0.165375
v 0.360975 0.620000 0.160000
v 0.323800 0.604775 0.160000
v 0.475900 0.604675 0.160000
v 0.440075 0.619975 0.160000
v -0.786375 0.607750 -0.165375
v -0.786375 0.398875 -0.165375
v 0.446175 0.403775 0.160000
v -0.996150 0.398875 -0.165375
v 0.425300 0.412850 0.160000
v 0.401425 0.415975 0.160000
v 0.377175 0.412850 0.160000
v 0.587650 0.449850 0.160000
v 0.355875 0.403750 0.160000
v 0.564700 0.501500 0.160000
v 0.538250 0.544700 0.160000
v 0.508525 0.579050 0.160000
v 0.290200 0.579200 0.160000
v 0.525625 0.231900 0.160000
v 0.517075 0.274800 0.160000
v 0.506700 0.311550 0.160000
v 0.494525 0.342575 0.160000
v 0.480375 0.368375 0.160000
v 1.090725 0.245725 -0.165375
v 1.089575 0.197050 -0.165375
v 0.732425 0.607750 -0.165375
v 0.882025 0.607750 -0.165375
v 0.838325 0.403450 -0.165375
v 0.895775 0.402225 -0.165375
v 0.876750 0.403450 -0.165375
v 0.943550 0.598475 -0.165375
v 0.995500 0.569425 -0.165375
v 1.036950 0.518950 -0.165375
v 1.067200 0.446275 -0.165375
v 0.979750 0.208100 -0.165375
v 0.980425 0.237600 -0.165375
v 0.979700 0.268750 -0.165375
v 0.977600 0.295275 -0.165375
v 0.974275 0.317325 -0.165375
v 0.969900 0.335650 -0.165375
v 0.964525 0.350975 -0.165375
v 0.958025 0.363825 -0.165375
v 0.635350 0.251350 0.160000
v 0.623225 0.324175 0.160000
v 0.949650 0.375475 -0.165375
v 0.607300 0.390550 0.160000
v 0.939425 0.385275 -0.165375
v 0.927075 0.393050 -0.165375
v 0.912500 0.398725 -0.165375
v 1.085050 0.353825 -0.165375
v 0.950925 0.095775 -0.165375
v 0.464250 0.389075 0.160000
v 0.337500 0.389000 0.160000
v 0.321300 0.368300 0.160000
v 0.306925 0.342350 0.160000
v 0.294425 0.311200 0.160000
v 0.283825 0.274475 0.160000
v 0.275125 0.231725 0.160000
v -0.115550 0.607750 0.160000
v 0.259875 0.544850 0.160000
v 0.233125 0.501500 0.160000
vn -1.0000 -0.0000 -0.0000
vn -0.0000 -0.0000 1.0000
vn -0.0000 1.0000 -0.0000
vn -0.7593 -0.6508 -0.0000
vn -0.5958 -0.8031 -0.0000
vn -0.3713 -0.9285 -0.0000
vn -0.1206 -0.9927 -0.0000
vn 0.1251 -0.9921 -0.0000
vn 0.3806 -0.9248 -0.0000
vn 0.5996 -0.8003 -0.0000
vn 0.7624 -0.6471 -0.0000
vn 0.8550 -0.5186 -0.0000
vn 0.9231 0.3845 -0.0000
vn 0.7730 0.6344 -0.0000
vn 0.9144 -0.4048 -0.0000
vn 0.4881 0.8728 -0.0000
vn -0.9905 0.1375 -0.0000
vn 0.1073 -0.9942 -0.0000
vn -0.0643 -0.9979 -0.0000
vn -0.9500 0.3122 -0.0000
vn -0.9733 0.2293 -0.0000
vn -0.9872 0.1595 -0.0000
vn 0.9997 -0.0236 -0.0000
vn -0.0000 -0.0000 -1.0000
vn 0.9986 0.0524 -0.0000
vn 0.9819 0.1896 -0.0000
vn -0.9972 0.0752 -0.0000
vn -0.9997 0.0229 -0.0000
vn -0.9997 -0.0233 -0.0000
vn 0.9787 -0.2051 -0.0000
vn -0.9969 -0.0789 -0.0000
vn 0.9899 -0.1420 -0.0000
vn -0.9888 -0.1491 -0.0000
vn -0.9727 -0.2322 -0.0000
vn -0.7280 0.6856 -0.0000
vn -0.9432 -0.3323 -0.0000
vn -0.8930 -0.4500 -0.0000
vn -0.8352 0.5499 -0.0000
vn -0.8120 -0.5837 -0.0000
vn -0.9133 0.4073 -0.0000
vn -0.6919 -0.7220 -0.0000
vn -0.9547 0.2977 -0.0000
vn -0.5328 -0.8463 -0.0000
vn -0.9795 0.2016 -0.0000
vn -0.3628 -0.9319 -0.0000
vn -0.2048 -0.9788 -0.0000
vn 0.9980 0.0627 -0.0000
vn 0.9060 -0.4232 -0.0000
vn 0.9998 0.0196 -0.0000
vn 0.9436 -0.3312 -0.0000
vn 0.9647 -0.2632 -0.0000
vn -0.9999 -0.0148 -0.0000
vn -0.9989 -0.0477 -0.0000
vn -0.9963 -0.0864 -0.0000
vn -0.0746 0.9972 -0.0000
vn -0.2425 0.9701 -0.0000
vn -0.4267 0.9044 -0.0000
vn 0.9938 -0.1113 -0.0000
vn 0.9980 -0.0630 -0.0000
vn 0.9998 -0.0198 -0.0000
vn 0.9910 0.1340 -0.0000
vn -0.9911 0.1328 -0.0000
vn -0.9963 0.0863 -0.0000
vn -0.9989 0.0477 -0.0000
vn -0.9999 0.0148 -0.0000
vn -0.9950 0.1003 -0.0000
vn -0.9984 0.0561 -0.0000
vn -0.9998 0.0176 -0.0000
vn -0.9998 -0.0174 -0.0000
vn 0.9999 -0.0156 -0.0000
vn 0.9999 0.0156 -0.0000
vn 0.9958 -0.0911 -0.0000
vn 0.9987 -0.0507 -0.0000
vn 0.9649 -0.2625 -0.0000
vn 0.9970 -0.0773 -0.0000
vn -0.5884 0.8086 -0.0000
vn -0.0000 -1.0000 -0.0000
vn -0.9127 0.4086 -0.0000
vn -0.9551 0.2964 -0.0000
vn 0.7182 -0.6959 -0.0000
vn 0.7659 -0.6429 -0.0000
vn 0.8183 -0.5748 -0.0000
vn 0.8684 -0.4958 -0.0000
vn -0.9984 -0.0558 -0.0000
vn -0.9638 -0.2666 -0.0000
vn 0.8542 -0.5199 -0.0000
vn -0.7183 0.6957 -0.0000
vn 0.9987 0.0507 -0.0000
vn 0.9958 0.0911 -0.0000
vn 1.0000 -0.0000 -0.0000
vn -0.9646 -0.2636 -0.0000
vn 0.9057 -0.4239 -0.0000
vn 0.9638 0.2666 -0.0000
vn -0.9646 -0.2637 -0.0000
vn 0.9492 -0.3147 -0.0000
vn 0.9724 -0.2333 -0.0000
vn 0.9864 -0.1642 -0.0000
vn -0.7898 0.6134 -0.0000
vn -0.8771 0.4804 -0.0000
vn -0.9303 0.3667 -0.0000
vn -0.9627 0.2707 -0.0000
vn -0.9810 0.1939 -0.0000
vn 0.9803 0.1974 -0.0000
vn 0.9607 0.2775 -0.0000
vn 0.9332 0.3594 -0.0000
vn 0.8791 0.4767 -0.0000
vn 0.7906 0.6123 -0.0000
vn 0.6263 0.7796 -0.0000
vn 0.3956 0.9184 -0.0000
vn 0.1295 0.9916 -0.0000
vn -0.1281 0.9918 -0.0000
vn -0.3959 0.9183 -0.0000
vn -0.7279 0.6856 -0.0000
vn -0.9950 -0.0999 -0.0000
vn -0.9876 -0.1573 -0.0000
vn -0.9747 -0.2235 -0.0000
vn -0.9528 -0.3036 -0.0000
vn -0.9139 -0.4060 -0.0000
vn -0.8532 -0.5216 -0.0000
vn 0.9232 0.3843 -0.0000
vn 0.4879 0.8729 -0.0000
vn 0.9818 0.1898 -0.0000
vn -0.3623 -0.9321 -0.0000
vn -0.9724 -0.2335 -0.0000
vn -0.9436 -0.3310 -0.0000
vn 0.1491 0.9888 -0.0000
vn -0.6304 0.7762 -0.0000
vn 0.8542 -0.5200 -0.0000
vn 0.3928 0.9196 -0.0000
vn 0.1291 0.9916 -0.0000
vn -0.1225 0.9925 -0.0000
vn -0.3790 0.9254 -0.0000
vn 0.9138 0.4061 -0.0000
vn 0.8528 0.5222 -0.0000
vn 0.7562 0.6544 -0.0000
vn 0.6177 0.7864 -0.0000
vn -0.6057 0.7957 -0.0000
vn -0.6310 -0.7758 -0.0000
vn -0.3987 -0.9171 -0.0000
vn -0.1298 -0.9915 -0.0000
vn 0.1278 -0.9918 -0.0000
vn 0.3929 -0.9196 -0.0000
vn 0.9937 0.1119 -0.0000
vn 0.9864 0.1642 -0.0000
vn 0.9724 0.2333 -0.0000
vn 0.9492 0.3145 -0.0000
vn -0.9910 -0.1342 -0.0000
vn -0.9807 -0.1955 -0.0000
vn 0.7728 0.6346 -0.0000
vn -0.9624 -0.2717 -0.0000
vn -0.9309 -0.3653 -0.0000
vn -0.8768 -0.4809 -0.0000
vn -0.7889 -0.6145 -0.0000
vn 0.6260 -0.7798 -0.0000
vn 0.7875 -0.6163 -0.0000
vn 0.8748 -0.4846 -0.0000
vn 0.9281 -0.3724 -0.0000
vn 0.9608 -0.2773 -0.0000
vn 0.9799 -0.1994 -0.0000
vn 0.9908 -0.1354 -0.0000
vn -0.8923 -0.4514 -0.0000
vn -0.7497 0.6618 -0.0000
vn -0.8510 0.5251 -0.0000
vn -0.9152 0.4030 -0.0000
vn -0.8344 0.5511 -0.0000
vt 0.000000 0.000000
vt 0.122384 0.563443
vt 0.102967 0.573363
vt 0.102898 0.503391
vt 0.078804 0.502951
vt 0.063714 0.579318
vt 0.065577 0.497755
vt 0.086867 0.504242
vt 0.094927 0.504366
vt 0.084526 0.578373
vt 0.000186 0.574430
vt 0.162966 0.448860
vt 0.206710 0.455668
vt 0.159410 0.457984
vt 0.202168 0.477231
vt 0.154083 0.467086
vt 0.404739 0.507436
vt 0.359962 0.413595
vt 0.373725 0.399957
vt 0.432184 0.490047
vt 0.380333 0.518972
vt 0.347375 0.421037
vt 0.782286 0.532916
vt 0.669326 0.603605
vt 0.652020 0.581492
vt 0.356781 0.526017
vt 0.334894 0.424980
vt 0.578283 0.820037
vt 0.590215 0.836853
vt 0.556097 0.856922
vt 0.568633 0.802851
vt 0.537215 0.832417
vt 0.462409 0.465664
vt 0.389237 0.376737
vt 0.406037 0.338864
vt 0.885175 0.747243
vt 0.786689 0.780113
vt 0.777249 0.757927
vt 0.875467 0.718962
vt 0.765289 0.734665
vt 0.863667 0.689324
vt 0.836932 0.632018
vt 0.736298 0.689440
vt 0.822879 0.605023
vt 0.850596 0.660068
vt 0.751385 0.711694
vt 0.632721 0.760274
vt 0.637560 0.768731
vt 0.620621 0.867760
vt 0.604592 0.853184
vt 0.660309 0.798110
vt 0.669788 0.807813
vt 0.651339 0.787848
vt 0.686951 0.823183
vt 0.653466 0.889084
vt 0.636999 0.879668
vt 0.678729 0.816146
vt 0.876920 0.174619
vt 0.752563 0.171289
vt 0.754192 0.165833
vt 0.870536 0.167395
vt 0.871623 0.166200
vt 0.753180 0.165076
vt 0.752773 0.161539
vt 0.871649 0.164066
vt 0.754638 0.159598
vt 0.871690 0.161405
vt 0.643761 0.777998
vt 0.449219 0.132663
vt 0.373957 0.218255
vt 0.372352 0.213491
vt 0.440474 0.132893
vt 0.455019 0.137752
vt 0.379230 0.223720
vt 0.461391 0.143368
vt 0.384796 0.230070
vt 0.440269 0.131434
vt 0.371376 0.213604
vt 0.369456 0.211273
vt 0.686793 0.625226
vt 0.795272 0.555362
vt 0.808908 0.579462
vt 0.703726 0.646372
vt 0.720369 0.667654
vt 0.561294 0.785507
vt 0.556391 0.768369
vt 0.629298 0.752993
vt 0.553895 0.751589
vt 0.627004 0.746742
vt 0.553644 0.735416
vt 0.625585 0.741464
vt 0.502886 0.280172
vt 0.571761 0.242921
vt 0.613946 0.350187
vt 0.555671 0.719895
vt 0.624888 0.737157
vt 0.559959 0.705649
vt 0.624715 0.733622
vt 0.624971 0.730714
vt 0.566514 0.693100
vt 0.625665 0.728102
vt 0.575417 0.682141
vt 0.626878 0.725644
vt 0.586617 0.673225
vt 0.628455 0.723529
vt 0.599651 0.667009
vt 0.630087 0.721942
vt 0.613006 0.663703
vt 0.358747 0.282528
vt 0.356150 0.278178
vt 0.397749 0.259698
vt 0.400848 0.272078
vt 0.360744 0.287690
vt 0.403407 0.285777
vt 0.343542 0.268668
vt 0.338380 0.267498
vt 0.368253 0.000186
vt 0.414627 0.001958
vt 0.329829 0.192225
vt 0.626360 0.662910
vt 0.639952 0.664959
vt 0.653394 0.669509
vt 0.666359 0.675862
vt 0.678868 0.684249
vt 0.703014 0.707095
vt 0.691113 0.694713
vt 0.519922 0.806955
vt 0.151283 0.410023
vt 0.184631 0.433454
vt 0.184834 0.432243
vt 0.488874 0.749181
vt 0.476171 0.716340
vt 0.467029 0.682184
vt 0.486997 0.561417
vt 0.597455 0.542361
vt 0.626223 0.558956
vt 0.567569 0.533497
vt 0.537837 0.532916
vt 0.508635 0.540561
vt 0.462781 0.648304
vt 0.464270 0.615849
vt 0.472303 0.586654
vt 0.330909 0.532021
vt 0.247328 0.523408
vt 0.292608 0.422158
vt 0.503795 0.778910
vt 0.371670 0.213263
vt 0.327463 0.378564
vt 0.321000 0.425452
vt 0.317656 0.377757
vt 0.711617 0.471551
vt 0.695643 0.376518
vt 0.713836 0.368444
vt 0.692574 0.474518
vt 0.679289 0.380009
vt 0.684139 0.320606
vt 0.661519 0.380215
vt 0.678714 0.320515
vt 0.689124 0.319865
vt 0.693577 0.318294
vt 0.697533 0.315915
vt 0.247328 0.020767
vt 0.317206 0.268035
vt 0.709559 0.299108
vt 0.742383 0.319048
vt 0.706841 0.304665
vt 0.704029 0.309175
vt 0.701032 0.312813
vt 0.729465 0.347431
vt 0.719138 0.264042
vt 0.720387 0.255254
vt 0.755911 0.269039
vt 0.717241 0.273741
vt 0.178706 0.522000
vt 0.147899 0.474981
vt 0.137122 0.486506
vt 0.142528 0.481303
vt 0.712205 0.292247
vt 0.752473 0.284792
vt 0.714777 0.283829
vt 0.683677 0.205895
vt 0.660851 0.317127
vt 0.614317 0.376933
vt 0.131822 0.490732
vt 0.146647 0.547148
vt 0.125067 0.494902
vt 0.118151 0.498568
vt 0.672790 0.319591
vt 0.495591 0.392074
vt 0.555986 0.409436
vt 0.530773 0.447221
vt 0.462781 0.456854
vt 0.110588 0.501328
vt 0.308894 0.194167
vt 0.192451 0.378751
vt 0.197370 0.390590
vt 0.155103 0.415607
vt 0.201753 0.404025
vt 0.719584 0.228988
vt 0.761019 0.228534
vt 0.720641 0.234365
vt 0.721127 0.240387
vt 0.760092 0.240981
vt 0.721019 0.247304
vt 0.758448 0.254552
vt 0.205355 0.419288
vt 0.207315 0.436518
vt 0.162822 0.434453
vt 0.163622 0.441555
vt 0.120588 0.390795
vt 0.149199 0.328368
vt 0.129018 0.391532
vt 0.707309 0.211955
vt 0.702361 0.209590
vt 0.167569 0.347267
vt 0.135635 0.395335
vt 0.160988 0.427749
vt 0.158339 0.421528
vt 0.146755 0.404695
vt 0.141523 0.399764
vt 0.187177 0.369016
vt 0.176551 0.354341
vt 0.761348 0.216868
vt 0.717834 0.224214
vt 0.760991 0.205769
vt 0.715230 0.219668
vt 0.711712 0.215512
vt 0.759748 0.195781
vt 0.755447 0.178587
vt 0.106494 0.391718
vt 0.331511 0.267211
vt 0.158008 0.114741
vt 0.132829 0.317192
vt 0.757924 0.186758
vt 0.200241 0.129945
vt 0.181926 0.360962
vt 0.171337 0.348965
vt 0.167615 0.346475
vt 0.614317 0.038208
vt 0.637010 0.011832
vt 0.709023 0.150422
vt 0.165521 0.345710
vt 0.694499 0.147635
vt 0.689131 0.000186
vt 0.187924 0.287725
vt 0.191450 0.295829
vt 0.185495 0.429250
vt 0.185282 0.430100
vt 0.185047 0.431120
vt 0.185680 0.428657
vt 0.184963 0.430018
vt 0.167407 0.345917
vt 0.798603 0.936971
vt 0.789938 0.943146
vt 0.750421 0.892535
vt 0.805582 0.930921
vt 0.756764 0.886166
vt 0.672540 0.477196
vt 0.624319 0.481795
vt 0.810601 0.871510
vt 0.812677 0.884370
vt 0.765118 0.870904
vt 0.767332 0.862459
vt 0.761680 0.878806
vt 0.813954 0.895628
vt 0.814345 0.905722
vt 0.813596 0.915110
vt 0.565873 0.503771
vt 0.811517 0.924407
vt 0.778986 0.950198
vt 0.492439 0.532545
vt 0.794035 0.801320
vt 0.759727 0.795818
vt 0.763823 0.809082
vt 0.631886 0.720721
vt 0.696382 0.208152
vt 0.246956 0.000186
vt 0.721044 0.006175
vt 0.220860 0.307173
vt 0.902627 0.917022
vt 0.899421 0.931388
vt 0.895286 0.945334
vt 0.287525 0.015947
vt 0.890130 0.959257
vt 0.884264 0.972520
vt 0.581269 0.000186
vt 0.581270 0.078165
vt 0.502531 0.078165
vt 0.502531 0.198773
vt 0.556930 0.184874
vt 0.462781 0.000186
vt 0.905430 0.845977
vt 0.807754 0.856722
vt 0.906501 0.866354
vt 0.906280 0.884852
vt 0.904942 0.901628
vt 0.877550 0.985873
vt 0.114952 0.716085
vt 0.083662 0.724832
vt 0.892908 0.774215
vt 0.010612 0.736167
vt 0.898776 0.799769
vt 0.799746 0.821348
vt 0.902903 0.823741
vt 0.804152 0.839905
vt 0.246956 0.658168
vt 0.173531 0.693711
vt 0.207551 0.677918
vt 0.143701 0.706004
vt 0.700078 0.833425
vt 0.684833 0.900447
vt 0.669487 0.896021
vt 0.694114 0.828919
vt 0.869876 0.999814
vt 0.764513 0.958989
vt 0.184446 0.434738
vt 0.184350 0.436062
vt 0.184386 0.437419
vt 0.184611 0.438783
vt 0.185102 0.440072
vt 0.766552 0.821402
vt 0.768509 0.853215
vt 0.768751 0.843346
vt 0.768154 0.832785
vt 0.742921 0.897306
vt 0.734311 0.900426
vt 0.738306 0.960009
vt 0.724027 0.902510
vt 0.710332 0.956780
vt 0.712195 0.903465
vt 0.699110 0.902812
vt 0.340461 0.377586
vt 0.344005 0.375994
vt 0.336541 0.378515
vt 0.332214 0.378836
vt 0.653027 0.936908
vt 0.681488 0.948852
vt 0.347153 0.373728
vt 0.349999 0.370769
vt 0.352471 0.367274
vt 0.357199 0.357168
vt 0.359440 0.349978
vt 0.363730 0.318799
vt 0.363797 0.309249
vt 0.406323 0.318648
vt 0.362993 0.329478
vt 0.361448 0.340700
vt 0.354882 0.362798
vt 0.737388 0.750897
vt 0.746736 0.766638
vt 0.754091 0.781632
vt 0.714551 0.721309
vt 0.726413 0.735458
vt 0.626305 0.921077
vt 0.601286 0.902444
vt 0.577591 0.880799
vt 0.405337 0.301181
vt 0.348509 0.271079
vt 0.389550 0.238542
vt 0.352737 0.274302
vt 0.393978 0.248328
vt 0.362227 0.293697
vt 0.363233 0.300832
s 0
usemtl color_15277357
f 1/1/1 2/1/1 3/1/1
f 1/1/1 3/1/1 4/1/1
f 15/2/2 16/3/2 442/4/2
f 11/5/2 8/6/2 9/7/2
f 10/8/2 8/6/2 11/5/2
f 445/9/2 17/10/2 10/8/2
f 442/4/2 16/3/2 445/9/2
f 17/10/2 445/9/2 16/3/2
f 8/6/2 10/8/2 17/10/2
f 7/11/2 9/7/2 8/6/2
f 247/1/3 13/1/3 12/1/3
f 392/1/4 23/1/4 24/1/4
f 26/1/5 27/1/5 24/1/5
f 26/1/5 24/1/5 23/1/5
f 29/1/6 31/1/6 27/1/6
f 29/1/6 27/1/6 26/1/6
f 20/12/2 5/13/2 22/14/2
f 32/1/7 33/1/7 31/1/7
f 32/1/7 31/1/7 29/1/7
f 22/14/2 6/15/2 28/16/2
f 36/1/8 37/1/8 33/1/8
f 36/1/8 33/1/8 32/1/8
f 39/1/9 41/1/9 37/1/9
f 39/1/9 37/1/9 36/1/9
f 44/1/10 45/1/10 41/1/10
f 44/1/10 41/1/10 39/1/10
f 47/1/11 48/1/11 45/1/11
f 47/1/11 45/1/11 44/1/11
f 52/1/12 53/1/12 48/1/12
f 52/1/12 48/1/12 47/1/12
f 54/17/13 55/18/13 50/19/13
f 54/17/13 50/19/13 49/20/13
f 57/21/14 59/22/14 55/18/14
f 57/21/14 55/18/14 54/17/14
f 58/23/15 60/24/15 53/25/15
f 58/1/15 53/1/15 52/1/15
f 57/21/16 61/26/16 62/27/16
f 57/21/16 62/27/16 59/22/16
f 216/1/17 63/1/17 56/1/17
f 66/1/18 67/1/18 65/1/18
f 66/1/18 65/1/18 64/1/18
f 69/1/19 68/1/19 71/1/19
f 69/1/19 71/1/19 72/1/19
f 73/28/2 70/29/2 81/30/2
f 77/1/20 43/1/20 76/1/20
f 42/1/20 76/1/20 43/1/20
f 76/1/21 79/1/21 80/1/21
f 76/1/21 80/1/21 77/1/21
f 79/1/22 84/1/22 85/1/22
f 79/1/22 85/1/22 80/1/22
f 75/31/2 73/28/2 83/32/2
f 81/30/2 83/32/2 73/28/2
f 94/1/23 96/1/23 89/1/23
f 94/1/23 89/1/23 88/1/23
f 115/1/24 134/1/24 100/1/24
f 101/33/25 102/34/25 96/35/25
f 101/1/25 96/1/25 94/1/25
f 103/1/24 115/1/24 100/1/24
f 101/33/26 49/20/26 102/34/26
f 50/19/26 102/34/26 49/20/26
f 105/1/24 115/1/24 103/1/24
f 106/1/27 285/1/27 108/1/27
f 109/1/24 114/1/24 105/1/24
f 110/1/28 106/1/28 108/1/28
f 110/1/28 108/1/28 111/1/28
f 112/1/29 110/1/29 111/1/29
f 112/1/29 111/1/29 113/1/29
f 21/1/30 184/1/30 82/1/30
f 116/1/31 112/1/31 113/1/31
f 116/1/31 113/1/31 117/1/31
f 184/1/32 21/1/32 190/1/32
f 25/1/32 190/1/32 21/1/32
f 114/1/24 115/1/24 105/1/24
f 518/1/24 529/1/24 517/1/24
f 520/1/24 529/1/24 519/1/24
f 118/1/33 116/1/33 117/1/33
f 118/1/33 117/1/33 119/1/33
f 121/1/34 118/1/34 119/1/34
f 121/1/34 119/1/34 122/1/34
f 125/1/24 128/1/24 151/1/24
f 35/1/35 107/1/35 197/1/35
f 124/1/36 121/1/36 122/1/36
f 124/1/36 122/1/36 126/1/36
f 136/1/24 151/1/24 128/1/24
f 530/1/24 99/1/24 135/1/24
f 127/1/37 124/1/37 126/1/37
f 127/1/37 126/1/37 129/1/37
f 197/1/38 202/1/38 35/1/38
f 40/1/38 35/1/38 202/1/38
f 130/1/39 127/1/39 129/1/39
f 130/1/39 129/1/39 131/1/39
f 46/1/40 40/1/40 202/1/40
f 46/1/40 202/1/40 207/1/40
f 130/1/41 131/1/41 132/1/41
f 130/1/41 132/1/41 133/1/41
f 207/1/42 51/1/42 46/1/42
f 128/1/24 530/1/24 136/1/24
f 135/1/24 136/1/24 530/1/24
f 154/1/24 156/1/24 123/1/24
f 123/1/24 125/1/24 153/1/24
f 133/1/43 132/1/43 137/1/43
f 133/1/43 137/1/43 138/1/43
f 216/1/44 56/1/44 51/1/44
f 138/1/45 137/1/45 140/1/45
f 138/1/45 140/1/45 141/1/45
f 153/1/24 154/1/24 123/1/24
f 141/1/46 140/1/46 68/1/46
f 141/1/46 68/1/46 69/1/46
f 151/1/24 152/1/24 125/1/24
f 120/1/24 123/1/24 156/1/24
f 152/1/24 153/1/24 125/1/24
f 143/36/47 144/37/47 145/38/47
f 143/36/47 145/38/47 146/39/47
f 165/1/24 148/1/24 164/1/24
f 74/1/48 226/1/48 286/1/48
f 145/38/49 150/40/49 149/41/49
f 145/38/49 149/41/49 146/39/49
f 156/1/24 158/1/24 120/1/24
f 142/1/24 120/1/24 147/1/24
f 155/1/24 156/1/24 154/1/24
f 147/1/24 148/1/24 142/1/24
f 74/1/50 78/1/50 226/1/50
f 229/1/50 226/1/50 78/1/50
f 165/1/24 139/1/24 148/1/24
f 139/1/24 142/1/24 148/1/24
f 158/1/24 147/1/24 120/1/24
f 229/1/51 78/1/51 82/1/51
f 160/1/52 157/1/52 159/1/52
f 160/1/52 159/1/52 161/1/52
f 155/1/24 167/1/24 158/1/24
f 147/1/24 158/1/24 167/1/24
f 162/1/53 160/1/53 161/1/53
f 162/1/53 161/1/53 163/1/53
f 166/1/54 162/1/54 163/1/54
f 166/1/54 163/1/54 169/1/54
f 167/1/24 168/1/24 147/1/24
f 241/1/55 87/1/55 308/1/55
f 246/1/56 98/1/56 241/1/56
f 87/1/56 241/1/56 98/1/56
f 172/1/24 181/1/24 171/1/24
f 173/1/24 181/1/24 172/1/24
f 174/1/24 181/1/24 173/1/24
f 98/1/57 246/1/57 104/1/57
f 176/42/58 177/43/58 320/44/58
f 178/1/24 188/1/24 175/1/24
f 179/45/59 180/46/59 177/43/59
f 179/45/59 177/43/59 176/42/59
f 179/45/60 149/41/60 180/46/60
f 150/40/60 180/46/60 149/41/60
f 181/1/24 174/1/24 178/1/24
f 75/31/61 349/47/61 298/48/61
f 182/1/24 171/1/24 181/1/24
f 185/1/62 345/1/62 186/1/62
f 187/1/24 255/1/24 182/1/24
f 189/1/24 175/1/24 188/1/24
f 191/1/63 185/1/63 186/1/63
f 191/1/63 186/1/63 192/1/63
f 193/1/64 191/1/64 192/1/64
f 193/1/64 192/1/64 194/1/64
f 194/1/65 159/1/65 193/1/65
f 157/1/65 193/1/65 159/1/65
f 171/1/24 182/1/24 170/1/24
f 196/1/24 178/1/24 174/1/24
f 188/1/24 178/1/24 196/1/24
f 170/1/24 182/1/24 195/1/24
f 232/1/24 254/1/24 187/1/24
f 240/1/24 76/1/24 239/1/24
f 245/1/24 84/1/24 244/1/24
f 199/1/66 85/1/66 198/1/66
f 84/1/66 198/1/66 85/1/66
f 198/1/67 201/1/67 203/1/67
f 198/1/67 203/1/67 199/1/67
f 204/1/24 222/1/24 200/1/24
f 201/1/68 205/1/68 206/1/68
f 201/1/68 206/1/68 203/1/68
f 81/1/69 206/1/69 205/1/69
f 51/1/42 207/1/42 210/1/42
f 208/1/24 221/1/24 204/1/24
f 211/49/70 212/50/70 213/51/70
f 211/49/70 213/51/70 214/52/70
f 215/1/24 220/1/24 209/1/24
f 216/1/44 51/1/44 210/1/44
f 213/51/71 212/50/71 294/53/71
f 63/1/17 216/1/17 218/1/17
f 183/1/24 225/1/24 189/1/24
f 220/1/24 215/1/24 183/1/24
f 221/1/24 208/1/24 220/1/24
f 222/1/24 204/1/24 221/1/24
f 143/1/24 166/1/24 222/1/24
f 219/54/72 217/55/72 223/56/72
f 219/54/72 223/56/72 224/57/72
f 215/1/24 225/1/24 183/1/24
f 224/57/73 223/56/73 211/49/73
f 224/57/73 211/49/73 214/52/73
f 175/1/24 189/1/24 225/1/24
f 230/1/74 231/1/74 228/1/74
f 230/1/74 228/1/74 227/1/74
f 82/1/51 233/1/51 229/1/51
f 234/1/30 235/1/30 231/1/30
f 234/1/30 231/1/30 230/1/30
f 237/1/32 238/1/32 235/1/32
f 237/1/32 235/1/32 234/1/32
f 239/1/24 76/1/24 236/1/24
f 184/1/30 233/1/30 82/1/30
f 89/1/75 238/1/75 237/1/75
f 89/1/75 237/1/75 88/1/75
f 236/1/24 42/1/24 232/1/24
f 244/1/24 79/1/24 240/1/24
f 242/1/50 227/1/50 243/1/50
f 228/1/50 243/1/50 227/1/50
f 246/1/57 248/1/57 104/1/57
f 247/1/3 12/1/3 249/1/3
f 130/1/24 133/1/24 54/1/24
f 251/1/55 247/1/55 249/1/55
f 251/1/55 249/1/55 253/1/55
f 252/1/76 107/1/76 248/1/76
f 104/1/76 248/1/76 107/1/76
f 255/1/24 187/1/24 254/1/24
f 195/1/24 182/1/24 255/1/24
f 254/1/24 232/1/24 42/1/24
f 256/1/56 251/1/56 253/1/56
f 256/1/56 253/1/56 257/1/56
f 107/1/35 252/1/35 197/1/35
f 259/1/57 256/1/57 257/1/57
f 259/1/57 257/1/57 261/1/57
f 72/1/24 250/1/24 69/1/24
f 262/1/76 259/1/76 261/1/76
f 262/1/76 261/1/76 263/1/76
f 264/1/35 262/1/35 263/1/35
f 264/1/35 263/1/35 265/1/35
f 133/1/24 138/1/24 54/1/24
f 49/1/24 130/1/24 54/1/24
f 266/1/38 264/1/38 265/1/38
f 266/1/38 265/1/38 267/1/38
f 86/1/77 268/1/77 269/1/77
f 270/1/78 266/1/78 267/1/78
f 270/1/78 267/1/78 271/1/78
f 76/1/24 240/1/24 79/1/24
f 42/1/24 236/1/24 76/1/24
f 79/1/24 244/1/24 84/1/24
f 84/1/24 245/1/24 219/1/24
f 272/1/79 270/1/79 271/1/79
f 272/1/79 271/1/79 276/1/79
f 273/58/80 274/59/80 275/60/80
f 273/58/80 275/60/80 277/61/80
f 278/1/81 280/1/81 274/1/81
f 278/1/81 274/1/81 273/1/81
f 279/1/44 272/1/44 276/1/44
f 279/1/44 276/1/44 281/1/44
f 124/1/24 49/1/24 101/1/24
f 88/1/24 110/1/24 94/1/24
f 282/1/82 283/1/82 280/1/82
f 282/1/82 280/1/82 278/1/82
f 284/1/17 279/1/17 281/1/17
f 284/1/17 281/1/17 285/1/17
f 286/1/83 287/1/83 283/1/83
f 286/1/83 283/1/83 282/1/83
f 110/1/24 88/1/24 106/1/24
f 106/1/27 284/1/27 285/1/27
f 286/1/48 226/1/48 287/1/48
f 112/1/24 94/1/24 110/1/24
f 205/1/69 288/1/69 81/1/69
f 116/1/24 94/1/24 112/1/24
f 288/1/84 289/1/84 83/1/84
f 288/1/84 83/1/84 81/1/84
f 290/62/85 277/61/85 275/60/85
f 290/62/85 275/60/85 291/63/85
f 118/1/24 101/1/24 116/1/24
f 290/62/86 291/63/86 292/64/86
f 290/62/86 292/64/86 293/65/86
f 121/1/24 101/1/24 118/1/24
f 212/50/71 70/29/71 294/53/71
f 275/66/87 277/67/87 293/65/87
f 275/66/87 293/65/87 292/64/87
f 279/1/24 284/1/24 237/1/24
f 294/53/88 70/29/88 73/28/88
f 294/53/88 73/28/88 295/68/88
f 297/1/77 260/1/77 296/1/77
f 258/1/77 296/1/77 260/1/77
f 295/68/89 73/28/89 75/31/89
f 295/68/89 75/31/89 298/48/89
f 325/1/90 297/1/90 296/1/90
f 130/1/24 49/1/24 127/1/24
f 138/1/24 141/1/24 57/1/24
f 86/1/77 269/1/77 301/1/77
f 61/1/24 57/1/24 141/1/24
f 94/1/24 116/1/24 101/1/24
f 141/1/24 69/1/24 61/1/24
f 101/1/24 121/1/24 124/1/24
f 65/1/91 86/1/91 64/1/91
f 301/1/91 64/1/91 86/1/91
f 250/1/24 61/1/24 69/1/24
f 57/1/24 54/1/24 138/1/24
f 124/1/24 127/1/24 49/1/24
f 302/69/80 92/70/80 91/71/80
f 302/69/80 91/71/80 305/72/80
f 306/1/3 304/1/3 303/1/3
f 306/1/3 303/1/3 308/1/3
f 307/73/81 93/74/81 92/70/81
f 307/73/81 92/70/81 302/69/81
f 160/1/24 149/1/24 157/1/24
f 309/75/82 95/76/82 93/74/82
f 309/75/82 93/74/82 307/73/82
f 143/1/24 146/1/24 162/1/24
f 308/1/55 87/1/55 306/1/55
f 310/1/83 97/1/83 95/1/83
f 310/1/83 95/1/83 309/1/83
f 311/1/90 312/1/90 300/1/90
f 311/1/90 300/1/90 299/1/90
f 310/1/92 242/1/92 97/1/92
f 243/1/92 97/1/92 242/1/92
f 305/1/93 91/1/93 66/1/93
f 441/1/1 327/1/1 326/1/1
f 313/77/85 305/72/85 91/71/85
f 313/77/85 91/71/85 90/78/85
f 149/1/24 160/1/24 146/1/24
f 160/1/24 162/1/24 146/1/24
f 143/1/24 162/1/24 166/1/24
f 200/1/24 222/1/24 166/1/24
f 209/1/24 220/1/24 208/1/24
f 313/77/86 90/78/86 314/79/86
f 313/1/86 314/1/86 315/1/86
f 343/1/94 258/1/94 342/1/94
f 260/1/94 342/1/94 258/1/94
f 91/1/87 305/1/87 315/1/87
f 91/1/87 315/1/87 314/1/87
f 60/24/95 58/23/95 317/80/95
f 316/81/95 317/80/95 58/23/95
f 268/1/90 330/1/90 269/1/90
f 318/82/96 319/83/96 317/80/96
f 318/82/96 317/80/96 316/81/96
f 346/1/93 277/1/93 275/1/93
f 320/44/97 321/84/97 319/83/97
f 320/44/97 319/83/97 318/82/97
f 322/1/3 323/1/3 362/1/3
f 177/43/58 321/84/58 320/44/58
f 324/1/77 325/1/77 326/1/77
f 324/1/77 326/1/77 327/1/77
f 328/1/98 18/1/98 19/1/98
f 328/1/98 19/1/98 332/1/98
f 329/1/77 330/1/77 331/1/77
f 329/1/77 331/1/77 333/1/77
f 336/1/99 328/1/99 332/1/99
f 336/1/99 332/1/99 337/1/99
f 338/1/100 336/1/100 337/1/100
f 338/1/100 337/1/100 339/1/100
f 325/1/90 324/1/90 297/1/90
f 340/1/101 338/1/101 339/1/101
f 340/1/101 339/1/101 341/1/101
f 344/1/102 340/1/102 341/1/102
f 344/1/102 341/1/102 345/1/102
f 185/1/62 344/1/62 345/1/62
f 346/1/18 347/1/18 343/1/18
f 346/1/18 343/1/18 342/1/18
f 75/31/61 348/85/61 349/47/61
f 349/47/103 348/85/103 350/86/103
f 349/47/103 350/86/103 351/87/103
f 330/1/90 329/1/90 269/1/90
f 275/1/93 347/1/93 346/1/93
f 351/87/104 350/86/104 352/88/104
f 351/87/104 352/88/104 353/89/104
f 322/1/90 335/1/90 334/1/90
f 322/1/90 334/1/90 323/1/90
f 353/89/105 352/88/105 354/90/105
f 353/89/105 354/90/105 355/91/105
f 357/1/77 299/1/77 356/1/77
f 300/1/77 356/1/77 299/1/77
f 359/92/3 312/93/3 358/94/3
f 311/1/3 358/1/3 312/1/3
f 355/91/106 354/90/106 360/95/106
f 355/91/106 360/95/106 361/96/106
f 357/1/90 356/1/90 362/1/90
f 357/1/90 362/1/90 363/1/90
f 361/96/107 360/95/107 364/97/107
f 361/96/107 364/97/107 365/98/107
f 363/1/3 362/1/3 323/1/3
f 366/99/108 365/98/108 364/97/108
f 366/99/108 364/97/108 367/100/108
f 3/1/77 334/1/77 4/1/77
f 335/1/77 4/1/77 334/1/77
f 368/101/109 366/99/109 367/100/109
f 368/101/109 367/100/109 369/102/109
f 370/103/110 368/101/110 369/102/110
f 370/103/110 369/102/110 371/104/110
f 191/1/24 176/1/24 185/1/24
f 372/105/111 370/103/111 371/104/111
f 372/105/111 371/104/111 373/106/111
f 374/107/112 372/105/112 373/106/112
f 374/107/112 373/106/112 375/108/112
f 157/1/24 149/1/24 193/1/24
f 149/1/24 179/1/24 193/1/24
f 191/1/24 193/1/24 179/1/24
f 191/1/24 179/1/24 176/1/24
f 91/71/2 92/70/2 90/78/2
f 267/109/2 265/110/2 228/111/2
f 228/111/2 231/112/2 267/109/2
f 271/113/2 267/109/2 231/112/2
f 231/112/2 235/114/2 271/113/2
f 294/1/24 295/1/24 288/1/24
f 213/1/24 294/1/24 205/1/24
f 257/115/2 253/116/2 90/78/2
f 65/117/2 67/118/2 86/119/2
f 134/1/74 460/1/74 135/1/74
f 376/1/30 460/1/30 134/1/30
f 219/1/24 224/1/24 198/1/24
f 201/1/24 198/1/24 224/1/24
f 84/1/24 219/1/24 198/1/24
f 224/1/24 214/1/24 201/1/24
f 205/1/24 201/1/24 214/1/24
f 214/1/24 213/1/24 205/1/24
f 205/1/24 294/1/24 288/1/24
f 19/120/2 60/24/2 332/121/2
f 60/24/2 317/80/2 332/121/2
f 234/1/24 279/1/24 237/1/24
f 337/122/2 332/121/2 317/80/2
f 339/123/2 337/122/2 317/80/2
f 251/1/24 301/1/24 247/1/24
f 317/80/2 319/83/2 339/123/2
f 341/124/2 339/123/2 319/83/2
f 319/83/2 321/84/2 341/124/2
f 177/43/2 186/125/2 321/84/2
f 345/126/2 341/124/2 321/84/2
f 83/32/2 383/127/2 75/31/2
f 256/1/24 313/1/24 251/1/24
f 378/128/113 530/129/113 128/130/113
f 264/1/24 242/1/24 262/1/24
f 266/1/24 227/1/24 264/1/24
f 270/1/24 230/1/24 266/1/24
f 272/1/24 234/1/24 270/1/24
f 354/90/2 387/131/2 360/95/2
f 352/88/2 387/131/2 354/90/2
f 279/1/24 234/1/24 272/1/24
f 360/95/2 389/132/2 364/97/2
f 88/1/24 237/1/24 284/1/24
f 364/97/2 391/133/2 367/100/2
f 369/102/2 31/134/2 371/104/2
f 106/1/24 88/1/24 284/1/24
f 227/1/24 266/1/24 230/1/24
f 230/1/24 270/1/24 234/1/24
f 242/1/24 264/1/24 227/1/24
f 310/1/24 262/1/24 242/1/24
f 310/1/24 309/1/24 259/1/24
f 289/1/114 382/1/114 383/1/114
f 289/1/114 383/1/114 83/1/114
f 382/1/115 384/1/115 385/1/115
f 382/1/115 385/1/115 383/1/115
f 289/1/24 288/1/24 295/1/24
f 384/1/116 386/1/116 387/1/116
f 384/1/116 387/1/116 385/1/116
f 298/1/24 289/1/24 295/1/24
f 386/1/117 388/1/117 389/1/117
f 386/1/117 389/1/117 387/1/117
f 388/1/118 390/1/118 391/1/118
f 388/1/118 391/1/118 389/1/118
f 390/1/119 392/1/119 393/1/119
f 390/1/119 393/1/119 391/1/119
f 24/1/4 393/1/4 392/1/4
f 91/1/93 67/1/93 66/1/93
f 307/1/24 302/1/24 256/1/24
f 313/1/24 256/1/24 302/1/24
f 305/72/24 313/77/24 302/69/24
f 45/135/2 48/136/2 373/106/2
f 375/108/2 373/106/2 48/136/2
f 19/120/2 375/108/2 53/25/2
f 60/24/2 19/120/2 53/25/2
f 48/136/2 53/25/2 375/108/2
f 41/137/2 45/135/2 373/106/2
f 373/106/2 371/104/2 41/137/2
f 37/138/2 41/137/2 371/104/2
f 33/139/2 37/138/2 371/104/2
f 367/100/2 393/140/2 369/102/2
f 24/141/2 27/142/2 369/102/2
f 27/142/2 31/134/2 369/102/2
f 33/139/2 371/104/2 31/134/2
f 250/143/3 394/144/3 395/145/3
f 262/1/24 310/1/24 259/1/24
f 313/1/24 315/1/24 251/1/24
f 309/1/24 307/1/24 259/1/24
f 301/1/24 251/1/24 315/1/24
f 269/1/24 247/1/24 301/1/24
f 305/1/24 66/1/24 315/1/24
f 301/1/24 315/1/24 66/1/24
f 301/1/24 66/1/24 64/1/24
f 24/141/2 369/102/2 393/140/2
f 393/140/2 367/100/2 391/133/2
f 391/133/2 364/97/2 389/132/2
f 389/132/2 360/95/2 387/131/2
f 387/131/2 352/88/2 385/146/2
f 383/127/2 385/146/2 350/86/2
f 350/86/2 385/146/2 352/88/2
f 350/86/2 348/85/2 383/127/2
f 348/85/2 75/31/2 383/127/2
f 336/1/24 316/1/24 328/1/24
f 13/1/90 397/1/90 396/1/90
f 91/147/2 314/79/2 67/118/2
f 314/79/2 86/119/2 67/118/2
f 397/1/77 72/1/77 396/1/77
f 71/1/77 396/1/77 72/1/77
f 338/1/24 316/1/24 336/1/24
f 344/1/24 320/1/24 340/1/24
f 400/1/120 401/1/120 399/1/120
f 400/1/120 399/1/120 398/1/120
f 71/148/2 538/149/2 396/150/2
f 402/151/14 403/152/14 401/153/14
f 402/1/14 401/1/14 400/1/14
f 402/151/121 405/154/121 406/155/121
f 402/151/121 406/155/121 403/152/121
f 316/1/24 338/1/24 318/1/24
f 318/1/24 340/1/24 320/1/24
f 58/1/24 328/1/24 316/1/24
f 185/1/24 320/1/24 344/1/24
f 185/1/24 176/1/24 320/1/24
f 406/155/2 416/156/2 403/152/2
f 440/157/2 404/158/2 406/155/2
f 401/153/2 403/152/2 415/159/2
f 414/160/2 412/161/2 401/153/2
f 331/162/2 12/163/2 395/145/2
f 396/150/2 395/145/2 12/163/2
f 386/1/24 384/1/24 353/1/24
f 407/1/19 404/1/19 476/1/19
f 351/1/24 353/1/24 384/1/24
f 331/162/1 395/145/1 394/144/1
f 355/1/24 361/1/24 386/1/24
f 396/1/90 12/1/90 13/1/90
f 408/164/2 418/165/2 409/166/2
f 353/1/24 355/1/24 386/1/24
f 410/167/2 409/166/2 418/165/2
f 392/1/24 390/1/24 366/1/24
f 388/1/24 386/1/24 361/1/24
f 411/168/2 410/167/2 399/169/2
f 412/161/2 411/168/2 399/169/2
f 370/1/24 29/1/24 368/1/24
f 399/169/2 401/153/2 412/161/2
f 415/159/2 414/160/2 401/153/2
f 328/1/24 58/1/24 18/1/24
f 58/1/24 52/1/24 18/1/24
f 374/1/24 18/1/24 52/1/24
f 420/170/2 218/171/2 427/172/2
f 422/173/2 420/170/2 427/172/2
f 6/15/2 446/174/2 30/175/2
f 30/175/2 28/16/2 6/15/2
f 38/176/2 34/177/2 446/174/2
f 34/177/2 30/175/2 446/174/2
f 418/165/2 425/178/2 431/179/2
f 418/165/2 399/169/2 410/167/2
f 425/178/2 423/180/2 431/179/2
f 408/164/2 425/178/2 418/165/2
f 423/180/2 422/173/2 431/179/2
f 427/172/2 431/179/2 422/173/2
f 303/181/2 435/182/2 441/183/2
f 429/184/2 38/176/2 446/174/2
f 416/156/2 406/155/2 404/158/2
f 446/174/2 14/185/2 429/184/2
f 433/186/2 429/184/2 14/185/2
f 434/187/2 433/186/2 14/185/2
f 440/157/2 441/183/2 435/182/2
f 440/157/2 435/182/2 437/188/2
f 416/156/2 415/159/2 403/152/2
f 437/188/2 404/158/2 440/157/2
f 14/185/2 15/2/2 434/187/2
f 448/189/2 444/190/2 443/191/2
f 1/192/2 359/92/2 448/189/2
f 443/191/2 1/192/2 448/189/2
f 438/193/2 434/187/2 15/2/2
f 442/4/2 438/193/2 15/2/2
f 447/1/28 420/1/28 449/1/28
f 6/15/2 22/14/2 5/13/2
f 450/1/29 449/1/29 422/1/29
f 331/162/2 268/194/2 12/163/2
f 458/195/2 459/196/2 378/128/2
f 379/197/2 378/128/2 459/196/2
f 459/196/2 460/198/2 379/197/2
f 431/1/25 439/1/25 413/1/25
f 202/199/2 233/200/2 207/201/2
f 210/202/2 207/201/2 184/203/2
f 216/204/2 210/202/2 184/203/2
f 398/1/122 399/1/122 413/1/122
f 184/203/2 190/205/2 216/204/2
f 218/171/2 216/204/2 190/205/2
f 190/205/2 427/172/2 218/171/2
f 376/206/2 377/207/2 452/208/2
f 5/13/2 453/209/2 377/207/2
f 452/208/2 377/207/2 453/209/2
f 453/209/2 5/13/2 20/12/2
f 462/210/2 464/211/2 454/212/2
f 246/213/2 241/214/2 291/63/2
f 454/212/2 470/215/2 455/216/2
f 291/63/2 274/59/2 246/213/2
f 381/217/2 380/218/2 376/206/2
f 452/208/2 381/217/2 376/206/2
f 460/198/2 376/206/2 380/218/2
f 380/218/2 379/197/2 460/198/2
f 457/219/2 458/195/2 378/128/2
f 456/220/2 469/221/2 457/219/2
f 455/216/2 467/222/2 456/220/2
f 233/200/2 202/199/2 229/223/2
f 197/224/2 229/223/2 202/199/2
f 184/203/2 207/201/2 233/200/2
f 226/225/2 229/223/2 197/224/2
f 226/225/2 197/224/2 252/226/2
f 248/227/2 287/228/2 252/226/2
f 246/213/2 280/229/2 248/227/2
f 461/230/2 9/7/2 7/11/2
f 314/79/2 253/116/2 86/119/2
f 415/1/43 430/1/43 428/1/43
f 86/119/2 249/231/2 268/194/2
f 7/11/2 472/232/2 461/230/2
f 461/230/2 463/233/2 462/210/2
f 416/1/123 432/1/123 415/1/123
f 430/1/123 415/1/123 432/1/123
f 464/211/2 462/210/2 463/233/2
f 287/228/2 248/227/2 283/234/2
f 283/234/2 248/227/2 280/229/2
f 280/229/2 246/213/2 274/59/2
f 226/225/2 252/226/2 287/228/2
f 275/60/2 274/59/2 291/63/2
f 432/1/46 416/1/46 407/1/46
f 463/233/2 461/230/2 472/232/2
f 473/235/2 463/233/2 472/232/2
f 436/1/75 427/1/75 25/1/75
f 469/221/2 456/220/2 468/236/2
f 468/236/2 456/220/2 467/222/2
f 467/222/2 455/216/2 466/237/2
f 458/195/2 457/219/2 469/221/2
f 466/237/2 455/216/2 470/215/2
f 465/238/2 466/237/2 470/215/2
f 343/239/2 347/240/2 258/241/2
f 439/1/23 427/1/23 436/1/23
f 292/64/2 241/214/2 258/241/2
f 470/215/2 454/212/2 471/242/2
f 471/242/2 454/212/2 464/211/2
f 296/243/2 303/181/2 326/244/2
f 477/245/2 475/246/2 464/211/2
f 471/242/2 464/211/2 475/246/2
f 32/1/24 370/1/24 36/1/24
f 36/1/24 370/1/24 39/1/24
f 39/1/24 372/1/24 44/1/24
f 44/1/24 372/1/24 47/1/24
f 52/1/24 47/1/24 374/1/24
f 29/1/24 370/1/24 32/1/24
f 26/1/24 368/1/24 29/1/24
f 23/1/24 368/1/24 26/1/24
f 392/1/24 368/1/24 23/1/24
f 366/1/24 368/1/24 392/1/24
f 372/1/24 39/1/24 370/1/24
f 374/1/24 47/1/24 372/1/24
f 340/1/24 318/1/24 338/1/24
f 422/1/28 449/1/28 420/1/28
f 450/1/29 422/1/29 423/1/29
f 514/1/27 109/1/27 453/1/27
f 423/1/31 425/1/31 450/1/31
f 451/1/31 450/1/31 425/1/31
f 384/1/24 382/1/24 351/1/24
f 349/1/24 351/1/24 382/1/24
f 298/1/24 349/1/24 382/1/24
f 289/1/24 298/1/24 382/1/24
f 361/1/24 365/1/24 388/1/24
f 390/1/24 388/1/24 365/1/24
f 365/1/24 366/1/24 390/1/24
f 135/1/50 459/1/50 458/1/50
f 135/1/50 458/1/50 136/1/50
f 408/1/33 417/1/33 425/1/33
f 451/1/33 425/1/33 417/1/33
f 460/1/74 459/1/74 135/1/74
f 250/1/24 397/1/24 394/1/24
f 413/1/25 418/1/25 431/1/25
f 13/1/24 394/1/24 397/1/24
f 399/1/122 418/1/122 413/1/122
f 462/210/55 454/212/55 120/247/55
f 72/1/24 397/1/24 250/1/24
f 455/216/56 123/248/56 454/212/56
f 120/247/56 454/212/56 123/248/56
f 480/1/24 405/1/24 407/1/24
f 123/248/57 455/216/57 456/220/57
f 123/248/57 456/220/57 125/249/57
f 430/1/24 432/1/24 402/1/24
f 400/1/24 430/1/24 402/1/24
f 405/1/24 402/1/24 432/1/24
f 476/1/24 474/1/24 480/1/24
f 407/1/24 476/1/24 480/1/24
f 457/219/76 128/130/76 456/220/76
f 125/249/76 456/220/76 128/130/76
f 419/1/124 417/1/124 408/1/124
f 419/1/124 408/1/124 409/1/124
f 409/1/125 410/1/125 419/1/125
f 421/1/125 419/1/125 410/1/125
f 128/130/113 457/219/113 378/128/113
f 419/1/24 413/1/24 417/1/24
f 424/1/37 421/1/37 410/1/37
f 424/1/37 410/1/37 411/1/37
f 421/1/24 413/1/24 419/1/24
f 411/1/39 412/1/39 424/1/39
f 426/1/39 424/1/39 412/1/39
f 424/1/24 398/1/24 421/1/24
f 414/1/41 428/1/41 412/1/41
f 426/1/41 412/1/41 428/1/41
f 142/250/3 139/251/3 461/230/3
f 142/250/3 461/230/3 462/210/3
f 426/1/24 398/1/24 424/1/24
f 428/1/24 400/1/24 426/1/24
f 428/1/43 414/1/43 415/1/43
f 462/210/55 120/247/55 142/250/55
f 430/1/24 400/1/24 428/1/24
f 165/1/1 472/1/1 7/1/1
f 432/1/24 407/1/24 405/1/24
f 413/1/24 421/1/24 398/1/24
f 464/1/77 463/1/77 148/1/77
f 464/1/77 148/1/77 147/1/77
f 148/1/90 463/1/90 473/1/90
f 148/1/90 473/1/90 164/1/90
f 416/1/46 404/1/46 407/1/46
f 398/1/24 426/1/24 400/1/24
f 190/1/75 25/1/75 427/1/75
f 147/1/91 168/1/91 464/1/91
f 439/1/23 431/1/23 427/1/23
f 154/1/80 466/1/80 465/1/80
f 154/1/80 465/1/80 155/1/80
f 449/1/24 436/1/24 447/1/24
f 153/1/81 467/1/81 466/1/81
f 153/1/81 466/1/81 154/1/81
f 413/1/24 439/1/24 451/1/24
f 152/1/82 468/1/82 467/1/82
f 152/1/82 467/1/82 153/1/82
f 218/1/27 420/1/27 63/1/27
f 447/1/27 63/1/27 420/1/27
f 151/1/83 469/1/83 468/1/83
f 151/1/83 468/1/83 152/1/83
f 417/1/24 413/1/24 451/1/24
f 436/1/24 449/1/24 439/1/24
f 450/1/24 451/1/24 439/1/24
f 469/1/92 151/1/92 458/1/92
f 474/1/24 304/1/24 478/1/24
f 155/1/93 465/1/93 167/1/93
f 327/1/24 478/1/24 304/1/24
f 465/252/2 471/242/2 475/246/2
f 478/1/24 480/1/24 474/1/24
f 482/253/2 497/254/2 491/255/2
f 481/256/2 482/253/2 491/255/2
f 491/255/2 490/257/2 481/256/2
f 478/1/1 327/1/1 441/1/1
f 435/1/90 303/1/90 304/1/90
f 2/1/24 485/1/24 488/1/24
f 486/1/24 488/1/24 485/1/24
f 358/1/24 2/1/24 488/1/24
f 269/1/24 333/1/24 13/1/24
f 440/157/126 406/155/126 480/258/126
f 405/154/126 480/258/126 406/155/126
f 480/258/3 478/259/3 441/183/3
f 480/258/3 441/183/3 440/157/3
f 494/260/2 495/261/2 487/262/2
f 487/262/2 531/263/2 494/260/2
f 489/264/2 487/262/2 495/261/2
f 495/261/2 496/265/2 489/264/2
f 13/1/24 247/1/24 269/1/24
f 259/1/24 307/1/24 256/1/24
f 496/265/2 483/266/2 489/264/2
f 490/257/2 489/264/2 483/266/2
f 483/266/2 484/267/2 490/257/2
f 435/1/90 304/1/90 474/1/90
f 404/1/19 437/1/19 476/1/19
f 476/1/77 437/1/77 435/1/77
f 476/1/77 435/1/77 474/1/77
f 40/1/24 78/1/24 35/1/24
f 485/268/90 443/191/90 444/190/90
f 485/1/90 444/1/90 486/1/90
f 51/1/24 21/1/24 46/1/24
f 484/267/2 479/269/2 490/257/2
f 479/269/2 481/256/2 490/257/2
f 497/254/2 539/270/2 491/255/2
f 56/1/24 63/1/24 25/1/24
f 46/1/24 82/1/24 40/1/24
f 488/1/77 486/1/77 448/1/77
f 444/1/77 448/1/77 486/1/77
f 436/1/24 25/1/24 63/1/24
f 359/92/90 358/94/90 448/189/90
f 488/1/90 448/1/90 358/1/90
f 443/191/3 485/268/3 1/192/3
f 2/271/3 1/192/3 485/268/3
f 144/37/2 522/272/2 169/273/2
f 333/1/1 331/1/1 394/1/1
f 498/274/2 169/273/2 522/272/2
f 82/1/24 46/1/24 21/1/24
f 21/1/24 56/1/24 25/1/24
f 56/1/24 21/1/24 51/1/24
f 436/1/24 63/1/24 447/1/24
f 450/1/24 439/1/24 449/1/24
f 98/1/24 290/1/24 87/1/24
f 18/275/127 374/107/127 375/108/127
f 18/275/127 375/108/127 19/120/127
f 156/1/85 155/1/85 465/1/85
f 156/1/85 465/1/85 470/1/85
f 104/1/24 107/1/24 286/1/24
f 74/1/24 286/1/24 107/1/24
f 156/1/128 470/1/128 471/1/128
f 156/1/128 471/1/128 158/1/128
f 441/183/2 326/244/2 303/181/2
f 465/1/87 155/1/87 158/1/87
f 465/1/87 158/1/87 471/1/87
f 258/241/2 308/276/2 296/243/2
f 291/63/2 241/214/2 292/64/2
f 303/181/2 296/243/2 308/276/2
f 308/276/2 258/241/2 241/214/2
f 164/277/77 473/235/77 472/232/77
f 164/1/77 472/1/77 165/1/77
f 107/1/24 35/1/24 74/1/24
f 286/1/24 282/1/24 104/1/24
f 74/1/24 35/1/24 78/1/24
f 78/1/24 40/1/24 82/1/24
f 98/1/24 104/1/24 278/1/24
f 282/1/24 278/1/24 104/1/24
f 325/278/2 296/243/2 326/244/2
f 477/1/91 464/1/91 168/1/91
f 167/279/18 475/246/18 477/245/18
f 167/1/18 477/1/18 168/1/18
f 465/252/93 475/246/93 167/279/93
f 292/64/2 258/241/2 347/240/2
f 394/1/24 13/1/24 333/1/24
f 174/280/129 173/281/129 484/267/129
f 174/280/129 484/267/129 483/266/129
f 278/1/24 273/1/24 98/1/24
f 290/1/24 98/1/24 273/1/24
f 277/61/24 290/62/24 273/58/24
f 173/281/130 172/282/130 479/269/130
f 173/281/130 479/269/130 484/267/130
f 330/283/2 268/194/2 331/162/2
f 172/282/131 171/284/131 481/256/131
f 172/282/131 481/256/131 479/269/131
f 275/66/2 292/64/2 347/240/2
f 304/1/24 306/1/24 297/1/24
f 171/284/132 170/285/132 482/253/132
f 171/284/132 482/253/132 481/256/132
f 335/286/2 322/287/2 362/288/2
f 277/1/24 346/1/24 293/1/24
f 312/93/2 359/92/2 356/289/2
f 312/93/2 356/289/2 300/290/2
f 327/1/24 304/1/24 297/1/24
f 1/192/2 4/291/2 356/289/2
f 1/192/2 356/289/2 359/92/2
f 4/291/2 335/286/2 362/288/2
f 362/288/2 356/289/2 4/291/2
f 114/1/24 109/1/24 504/1/24
f 504/1/24 515/1/24 503/1/24
f 183/292/133 494/260/133 492/293/133
f 290/1/24 293/1/24 87/1/24
f 527/1/24 528/1/24 511/1/24
f 189/294/133 494/260/133 183/292/133
f 188/295/134 495/261/134 494/260/134
f 188/295/134 494/260/134 189/294/134
f 293/1/24 260/1/24 87/1/24
f 306/1/24 87/1/24 260/1/24
f 260/1/24 297/1/24 306/1/24
f 188/295/135 496/265/135 495/261/135
f 297/1/24 324/1/24 327/1/24
f 509/1/24 507/1/24 506/1/24
f 196/296/135 496/265/135 188/295/135
f 196/296/136 174/280/136 483/266/136
f 196/296/136 483/266/136 496/265/136
f 342/1/24 260/1/24 346/1/24
f 260/1/24 293/1/24 346/1/24
f 505/1/24 506/1/24 507/1/24
f 528/1/24 508/1/24 510/1/24
f 510/1/24 511/1/24 528/1/24
f 512/1/24 527/1/24 511/1/24
f 513/1/24 524/1/24 512/1/24
f 497/254/137 482/253/137 195/297/137
f 170/285/137 195/297/137 482/253/137
f 269/1/24 329/1/24 333/1/24
f 531/1/138 487/1/138 175/1/138
f 515/1/24 504/1/24 514/1/24
f 175/1/139 487/1/139 489/1/139
f 175/1/139 489/1/139 178/1/139
f 516/1/24 503/1/24 515/1/24
f 514/1/24 504/1/24 109/1/24
f 358/1/24 311/1/24 357/1/24
f 299/1/24 357/1/24 311/1/24
f 178/1/140 489/1/140 490/1/140
f 178/1/140 490/1/140 181/1/140
f 3/1/24 2/1/24 357/1/24
f 363/1/24 3/1/24 357/1/24
f 358/1/24 357/1/24 2/1/24
f 181/1/141 490/1/141 491/1/141
f 181/1/141 491/1/141 182/1/141
f 323/1/24 334/1/24 363/1/24
f 334/1/24 3/1/24 363/1/24
f 182/1/142 491/1/142 493/1/142
f 182/1/142 493/1/142 187/1/142
f 517/1/24 503/1/24 516/1/24
f 503/1/23 6/1/23 5/1/23
f 503/1/23 5/1/23 504/1/23
f 519/1/24 529/1/24 518/1/24
f 510/298/126 506/299/126 8/6/126
f 521/1/24 513/1/24 520/1/24
f 144/37/143 143/36/143 522/272/143
f 222/300/143 522/272/143 143/36/143
f 506/299/3 505/301/3 7/11/3
f 506/299/3 7/11/3 8/6/3
f 221/302/144 523/303/144 522/272/144
f 221/302/144 522/272/144 222/300/144
f 524/1/24 513/1/24 521/1/24
f 220/304/145 525/305/145 523/303/145
f 220/304/145 523/303/145 221/302/145
f 526/1/24 512/1/24 524/1/24
f 446/174/26 529/306/26 14/185/26
f 220/304/146 183/292/146 525/305/146
f 492/293/146 525/305/146 183/292/146
f 527/1/24 512/1/24 526/1/24
f 200/1/147 166/1/147 169/1/147
f 200/1/147 169/1/147 498/1/147
f 506/1/24 510/1/24 508/1/24
f 503/1/24 517/1/24 529/1/24
f 512/307/120 15/2/120 14/185/120
f 512/307/120 14/185/120 513/308/120
f 204/1/148 200/1/148 498/1/148
f 204/1/148 498/1/148 499/1/148
f 511/309/149 16/3/149 15/2/149
f 511/309/149 15/2/149 512/307/149
f 508/1/24 509/1/24 506/1/24
f 529/1/24 520/1/24 513/1/24
f 208/1/150 204/1/150 499/1/150
f 208/1/150 499/1/150 500/1/150
f 511/309/16 510/298/16 17/10/16
f 511/309/16 17/10/16 16/3/16
f 165/1/24 505/1/24 139/1/24
f 507/1/24 139/1/24 505/1/24
f 209/1/151 208/1/151 500/1/151
f 209/1/151 500/1/151 501/1/151
f 8/6/126 17/10/126 510/298/126
f 215/1/152 209/1/152 501/1/152
f 215/1/152 501/1/152 502/1/152
f 134/1/24 135/1/24 99/1/24
f 99/1/24 100/1/24 134/1/24
f 502/1/153 531/1/153 215/1/153
f 225/1/153 215/1/153 531/1/153
f 445/1/46 10/1/46 508/1/46
f 225/1/138 531/1/138 175/1/138
f 508/1/19 10/1/19 11/1/19
f 508/1/19 11/1/19 509/1/19
f 509/1/77 11/1/77 9/1/77
f 509/1/77 9/1/77 507/1/77
f 503/1/25 446/1/25 6/1/25
f 493/1/154 532/1/154 232/1/154
f 493/1/154 232/1/154 187/1/154
f 529/1/25 446/1/25 503/1/25
f 232/1/155 532/1/155 533/1/155
f 232/1/155 533/1/155 236/1/155
f 513/308/26 14/185/26 529/306/26
f 236/1/156 533/1/156 534/1/156
f 236/1/156 534/1/156 239/1/156
f 453/1/27 20/1/27 514/1/27
f 239/1/157 534/1/157 535/1/157
f 239/1/157 535/1/157 240/1/157
f 515/1/28 514/1/28 20/1/28
f 515/1/28 20/1/28 22/1/28
f 240/1/158 535/1/158 536/1/158
f 240/1/158 536/1/158 244/1/158
f 516/1/29 515/1/29 22/1/29
f 516/1/29 22/1/29 28/1/29
f 517/1/31 516/1/31 28/1/31
f 517/1/31 28/1/31 30/1/31
f 244/310/159 536/311/159 537/312/159
f 244/310/159 537/312/159 245/313/159
f 518/1/33 517/1/33 30/1/33
f 518/1/33 30/1/33 34/1/33
f 519/1/34 518/1/34 34/1/34
f 519/1/34 34/1/34 38/1/34
f 217/55/160 219/54/160 537/312/160
f 245/313/160 537/312/160 219/54/160
f 520/1/125 519/1/125 38/1/125
f 520/1/125 38/1/125 429/1/125
f 538/149/126 62/27/126 250/143/126
f 61/26/126 250/143/126 62/27/126
f 521/1/161 520/1/161 429/1/161
f 521/1/161 429/1/161 433/1/161
f 250/143/3 395/145/3 538/149/3
f 524/1/39 521/1/39 433/1/39
f 524/1/39 433/1/39 434/1/39
f 524/1/41 434/1/41 438/1/41
f 524/1/41 438/1/41 526/1/41
f 195/297/162 255/314/162 539/270/162
f 195/297/162 539/270/162 497/254/162
f 526/1/43 438/1/43 442/1/43
f 526/1/43 442/1/43 527/1/43
f 255/1/163 254/1/163 540/1/163
f 255/314/163 540/315/163 539/270/163
f 527/1/45 442/1/45 445/1/45
f 527/1/45 445/1/45 528/1/45
f 254/1/164 42/1/164 43/1/164
f 254/1/164 43/1/164 540/1/164
f 528/1/46 445/1/46 508/1/46
f 165/1/1 7/1/1 505/1/1
f 139/1/90 507/1/90 461/1/90
f 9/1/90 461/1/90 507/1/90
f 377/1/75 114/1/75 5/1/75
f 504/1/75 5/1/75 114/1/75
f 376/1/30 134/1/30 115/1/30
f 377/1/32 376/1/32 114/1/32
f 115/1/32 114/1/32 376/1/32
f 378/128/165 379/197/165 530/129/165
f 99/316/165 530/129/165 379/197/165
f 100/317/40 99/316/40 379/197/40
f 100/317/40 379/197/40 380/218/40
f 380/218/79 381/217/79 100/317/79
f 103/318/79 100/317/79 381/217/79
f 105/319/44 103/318/44 381/217/44
f 105/319/44 381/217/44 452/208/44
f 452/208/17 453/209/17 105/319/17
f 109/320/17 105/319/17 453/209/17
f 151/1/92 136/1/92 458/1/92
f 522/272/2 523/303/2 499/321/2
f 502/322/2 501/323/2 525/305/2
f 501/323/2 500/324/2 525/305/2
f 523/303/2 525/305/2 500/324/2
f 500/324/2 499/321/2 523/303/2
f 525/305/2 492/293/2 502/322/2
f 492/293/2 494/260/2 531/263/2
f 531/263/2 502/322/2 492/293/2
f 493/325/2 491/255/2 539/270/2
f 532/326/2 493/325/2 540/315/2
f 540/315/2 43/327/2 532/326/2
f 533/328/2 532/326/2 43/327/2
f 43/327/2 77/329/2 533/328/2
f 534/330/2 533/328/2 77/329/2
f 535/331/2 534/330/2 77/329/2
f 395/145/2 396/150/2 538/149/2
f 540/315/2 493/325/2 539/270/2
f 137/332/2 132/333/2 55/18/2
f 55/18/2 59/22/2 137/332/2
f 140/334/2 137/332/2 59/22/2
f 59/22/2 62/27/2 140/334/2
f 68/335/2 140/334/2 62/27/2
f 62/27/2 538/149/2 68/335/2
f 71/148/2 68/335/2 538/149/2
f 537/312/2 536/311/2 85/336/2
f 217/55/2 537/312/2 85/336/2
f 80/337/2 85/336/2 536/311/2
f 50/19/2 55/18/2 131/338/2
f 129/339/2 126/340/2 50/19/2
f 119/341/2 117/342/2 102/34/2
f 108/343/2 285/344/2 89/345/2
f 111/346/2 108/343/2 89/345/2
f 89/345/2 96/35/2 111/346/2
f 117/342/2 113/347/2 96/35/2
f 96/35/2 102/34/2 117/342/2
f 122/348/2 119/341/2 102/34/2
f 126/340/2 122/348/2 102/34/2
f 102/34/2 50/19/2 126/340/2
f 131/338/2 129/339/2 50/19/2
f 132/333/2 131/338/2 55/18/2
f 159/349/2 150/40/2 161/350/2
f 150/40/2 145/38/2 161/350/2
f 163/351/2 161/350/2 145/38/2
f 499/321/2 498/274/2 522/272/2
f 145/38/2 144/37/2 163/351/2
f 169/273/2 163/351/2 144/37/2
f 345/126/2 321/84/2 186/125/2
f 192/352/2 186/125/2 177/43/2
f 150/40/2 194/353/2 180/46/2
f 159/349/2 194/353/2 150/40/2
f 194/353/2 192/352/2 180/46/2
f 177/43/2 180/46/2 192/352/2
f 199/354/2 203/355/2 223/56/2
f 211/49/2 206/356/2 212/50/2
f 77/329/2 80/337/2 535/331/2
f 536/311/2 535/331/2 80/337/2
f 211/49/2 223/56/2 203/355/2
f 206/356/2 211/49/2 203/355/2
f 81/30/2 70/29/2 206/356/2
f 212/50/2 206/356/2 70/29/2
f 223/56/2 217/55/2 199/354/2
f 85/336/2 199/354/2 217/55/2
f 238/357/2 89/345/2 285/344/2
f 113/347/2 111/346/2 96/35/2
f 12/163/2 268/194/2 249/231/2
f 253/116/2 249/231/2 86/119/2
f 314/79/2 90/78/2 253/116/2
f 90/78/2 92/70/2 257/115/2
f 92/70/2 93/74/2 257/115/2
f 261/358/2 257/115/2 93/74/2
f 93/74/2 95/76/2 261/358/2
f 95/76/2 97/359/2 261/358/2
f 263/360/2 261/358/2 97/359/2
f 97/359/2 243/361/2 263/360/2
f 265/110/2 263/360/2 243/361/2
f 243/361/2 228/111/2 265/110/2
f 276/362/2 271/113/2 235/114/2
f 281/363/2 276/362/2 235/114/2
f 235/114/2 238/357/2 281/363/2
f 285/344/2 281/363/2 238/357/2
